<svg width="22" height="22" viewBox="0 0 22 22" fill="none" xmlns="http://www.w3.org/2000/svg">
<path fill-rule="evenodd" clip-rule="evenodd" d="M11 0C17.0751 0 22 4.92487 22 11C22 13.8149 20.9426 16.3829 19.2034 18.3284L19.2036 18.3283L18.2656 17.3904C18.1037 17.2284 17.8949 17.1416 17.6829 17.13L17.6339 17.1287C17.4053 17.1287 17.1766 17.2159 17.0022 17.3904C16.6657 17.7268 16.6537 18.2648 16.9661 18.6157L17.0022 18.6539L17.9087 19.5603C16.0203 21.0862 13.6169 22 11 22C4.92487 22 0 17.0751 0 11C0 8.38312 0.913798 5.97967 2.43971 4.09134L3.21671 4.86844C3.39116 5.04289 3.61981 5.13011 3.84845 5.13011L3.89743 5.12878C4.10949 5.11721 4.31821 5.03043 4.4802 4.86844C4.8291 4.51953 4.8291 3.95385 4.4802 3.60494L3.67174 2.79641L3.67157 2.79656C5.61709 1.05735 8.18506 0 11 0ZM11.2343 17.37L11.1964 17.4058L8.97674 19.6254C8.63019 19.972 8.63019 20.5339 8.97674 20.8804C9.15001 21.0537 9.37712 21.1403 9.60422 21.1403L9.65287 21.139C9.86349 21.1275 10.0708 21.0413 10.2317 20.8804L12.4513 18.6608C12.7979 18.3142 12.7979 17.7523 12.4513 17.4058C12.2904 17.2449 12.0831 17.1587 11.8725 17.1472L11.8239 17.1459C11.613 17.1459 11.4021 17.2206 11.2343 17.37ZM13.6356 14.2472C13.025 14.8578 13.0217 15.8444 13.6281 16.4508C13.9236 16.7463 14.3093 16.897 14.6978 16.9033L14.7591 16.9031C15.1476 16.8942 15.5343 16.7409 15.8318 16.4434C16.4424 15.8328 16.4457 14.8462 15.8393 14.2397C15.5594 13.9598 15.1985 13.8098 14.831 13.7895L14.7697 13.7873C14.3607 13.7807 13.9487 13.9341 13.6356 14.2472ZM9.0156 9.40383C8.67916 9.74028 8.66714 10.2783 8.97955 10.6291L9.0156 10.6673L11.2033 12.855C11.3777 13.0294 11.6064 13.1167 11.835 13.1167L11.884 13.1153C12.096 13.1038 12.3048 13.017 12.4668 12.855C12.8157 12.5061 12.8157 11.9404 12.4668 11.5915L10.2791 9.40383C10.1171 9.24184 9.90838 9.15506 9.69632 9.14349L9.64735 9.14216C9.4187 9.14216 9.19005 9.22938 9.0156 9.40383ZM5.64905 6.26064C5.03847 6.87122 5.03513 7.85783 5.64159 8.4643C5.93704 8.75975 6.32273 8.91047 6.7112 8.91676L6.77254 8.91655C7.16107 8.90763 7.54778 8.7543 7.84524 8.45683C8.45582 7.84625 8.45916 6.85964 7.8527 6.25318C7.5728 5.97327 7.21191 5.82327 6.8444 5.80291L6.7831 5.80072C6.37418 5.7941 5.96217 5.94752 5.64905 6.26064ZM11.2886 1.34261L11.2507 1.37842L9.03101 3.59806C8.68446 3.94461 8.68446 4.50648 9.03101 4.85303C9.20428 5.0263 9.43139 5.11294 9.65849 5.11294L9.70714 5.11161C9.91777 5.10012 10.1251 5.01392 10.286 4.85303L12.5056 2.63338C12.8522 2.28683 12.8522 1.72497 12.5056 1.37842C12.3447 1.21752 12.1374 1.13132 11.9268 1.11983L11.8781 1.1185C11.6673 1.1185 11.4564 1.19321 11.2886 1.34261Z" fill="white"/>
</svg>