<?xml version="1.0" encoding="UTF-8" standalone="no"?>
<svg
   xmlns:dc="http://purl.org/dc/elements/1.1/"
   xmlns:cc="http://creativecommons.org/ns#"
   xmlns:rdf="http://www.w3.org/1999/02/22-rdf-syntax-ns#"
   xmlns:svg="http://www.w3.org/2000/svg"
   xmlns="http://www.w3.org/2000/svg"
   id="svg4"
   version="1.1"
   fill="none"
   viewBox="0 0 56 56"
   height="56"
   width="56">
  <metadata
     id="metadata10">
    <rdf:RDF>
      <cc:Work
         rdf:about="">
        <dc:format>image/svg+xml</dc:format>
        <dc:type
           rdf:resource="http://purl.org/dc/dcmitype/StillImage" />
        <dc:title></dc:title>
      </cc:Work>
    </rdf:RDF>
  </metadata>
  <defs
     id="defs8" />
  <path
     style="fill:#ffffff"
     id="path2"
     fill="#029AFF"
     d="M28 0C43.464 0 56 12.536 56 28C56 35.1653 53.3086 41.702 48.8815 46.6542L48.8819 46.6538L46.4944 44.2664C46.082 43.8541 45.5507 43.6332 45.011 43.6038L44.8863 43.6004C44.3043 43.6004 43.7223 43.8224 43.2782 44.2664C42.4218 45.1228 42.3912 46.4923 43.1865 47.3854L43.2782 47.4826L45.5857 49.7898C40.779 53.674 34.6611 56 28 56C12.536 56 0 43.464 0 28C0 21.3389 2.32603 15.221 6.21017 10.4143L8.18798 12.3924C8.63204 12.8364 9.21405 13.0585 9.79606 13.0585L9.92073 13.0551C10.4605 13.0256 10.9918 12.8047 11.4041 12.3924C12.2923 11.5043 12.2923 10.0643 11.4041 9.17621L9.34624 7.11813L9.3458 7.11852C14.298 2.69145 20.8347 0 28 0ZM28.5964 44.2145L28.4999 44.3057L22.8499 49.9557C21.9677 50.8378 21.9677 52.268 22.8499 53.1501C23.2909 53.5912 23.869 53.8117 24.4471 53.8117L24.5709 53.8083C25.1071 53.7791 25.6348 53.5597 26.0443 53.1501L31.6943 47.5001C32.5765 46.618 32.5765 45.1878 31.6943 44.3057C31.2848 43.8961 30.7571 43.6767 30.2209 43.6475L30.0971 43.6441C29.5603 43.6441 29.0235 43.8342 28.5964 44.2145ZM34.7088 36.2656C33.1546 37.8198 33.1461 40.3312 34.6898 41.8749C35.4419 42.627 36.4236 43.0106 37.4125 43.0266L37.5686 43.0261C38.5576 43.0034 39.5419 42.6131 40.2991 41.8559C41.8533 40.3017 41.8618 37.7903 40.3181 36.2466C39.6056 35.5341 38.687 35.1523 37.7515 35.1005L37.5955 35.0949C36.5546 35.078 35.5058 35.4686 34.7088 36.2656ZM22.9488 23.937C22.0924 24.7934 22.0618 26.1629 22.857 27.056L22.9488 27.1532L28.5174 32.7218C28.9615 33.1659 29.5435 33.3879 30.1255 33.3879L30.2501 33.3845C30.7899 33.355 31.3212 33.1341 31.7336 32.7218C32.6217 31.8337 32.6217 30.3937 31.7336 29.5056L26.165 23.937C25.7526 23.5247 25.2213 23.3038 24.6815 23.2743L24.5569 23.2709C23.9749 23.2709 23.3929 23.493 22.9488 23.937ZM14.3794 15.9362C12.8252 17.4904 12.8167 20.0018 14.3604 21.5455C15.1125 22.2975 16.0942 22.6812 17.083 22.6972L17.2392 22.6967C18.2282 22.674 19.2125 22.2837 19.9697 21.5265C21.5239 19.9723 21.5324 17.4609 19.9887 15.9172C19.2762 15.2047 18.3576 14.8229 17.4221 14.771L17.2661 14.7655C16.2252 14.7486 15.1764 15.1391 14.3794 15.9362ZM28.7346 3.41756L28.638 3.5087L22.988 9.1587C22.1059 10.0408 22.1059 11.471 22.988 12.3532C23.4291 12.7942 24.0072 13.0147 24.5853 13.0147L24.7091 13.0114C25.2452 12.9821 25.7729 12.7627 26.1825 12.3532L31.8325 6.70315C32.7146 5.82103 32.7146 4.39082 31.8325 3.5087C31.4229 3.09914 30.8952 2.87973 30.3591 2.85048L30.2353 2.8471C29.6985 2.8471 29.1617 3.03725 28.7346 3.41756Z"
     clip-rule="evenodd"
     fill-rule="evenodd" />
</svg>
